<svg width="1200" height="630" viewBox="0 0 1200 630" fill="none" xmlns="http://www.w3.org/2000/svg" role="img" aria-labelledby="title desc">
  <title id="title">MailToBills product overview</title>
  <desc id="desc">A marketing infographic showing invoices forwarded by email, organized by month, and exported for an accountant.</desc>
  <defs>
    <linearGradient id="heroWash" x1="139" x2="1086" y1="44" y2="603" gradientUnits="userSpaceOnUse">
      <stop stop-color="#F8F6EF"/>
      <stop offset="0.52" stop-color="#EEF5ED"/>
      <stop offset="1" stop-color="#F4F1EA"/>
    </linearGradient>
    <radialGradient id="glow" cx="0" cy="0" r="1" gradientTransform="matrix(368 0 0 224 778 197)" gradientUnits="userSpaceOnUse">
      <stop stop-color="#DCEBDD"/>
      <stop offset="1" stop-color="#DCEBDD" stop-opacity="0"/>
    </radialGradient>
    <filter id="cardShadow" x="-20%" y="-20%" width="140%" height="150%" color-interpolation-filters="sRGB">
      <feDropShadow dx="0" dy="18" stdDeviation="18" flood-color="#1E2A23" flood-opacity="0.13"/>
    </filter>
    <filter id="softShadow" x="-20%" y="-20%" width="140%" height="150%" color-interpolation-filters="sRGB">
      <feDropShadow dx="0" dy="10" stdDeviation="10" flood-color="#1E2A23" flood-opacity="0.1"/>
    </filter>
    <pattern id="ledger" width="48" height="48" patternUnits="userSpaceOnUse">
      <path d="M48 0H0V48" stroke="#E4DFD4" stroke-width="1"/>
    </pattern>
    <style>
      .sans { font-family: Inter, ui-sans-serif, system-ui, -apple-system, BlinkMacSystemFont, "Segoe UI", sans-serif; }
      .mono { font-family: "SFMono-Regular", "Roboto Mono", ui-monospace, Menlo, Consolas, monospace; }
    </style>
  </defs>

  <rect width="1200" height="630" rx="34" fill="url(#heroWash)"/>
  <rect width="1200" height="630" rx="34" fill="url(#ledger)" opacity="0.36"/>
  <rect width="1200" height="630" rx="34" fill="url(#glow)"/>
  <rect x="28" y="28" width="1144" height="574" rx="26" stroke="#DED8CC" stroke-width="2"/>

  <g transform="translate(78 70)">
    <g>
      <rect width="38" height="38" rx="11" fill="#2F684D"/>
      <path d="M11.5 15L19 9.5L26.5 15V25L19 30.5L11.5 25V15Z" stroke="#F7F3EA" stroke-width="2.2" stroke-linejoin="round"/>
      <path d="M14 16.5L19 20.5L24 16.5" stroke="#F7F3EA" stroke-width="2.2" stroke-linecap="round" stroke-linejoin="round"/>
    </g>
    <text x="52" y="24" class="sans" fill="#223027" font-size="24" font-weight="800">MailToBills</text>
    <text x="0" y="84" class="mono" fill="#557264" font-size="15" font-weight="700" letter-spacing="1.8">EMAIL-FIRST EXPENSE COLLECTION</text>
    <text x="0" y="142" class="sans" fill="#1F2420" font-size="57" font-weight="850" letter-spacing="-1.4">Forward invoices.</text>
    <text x="0" y="204" class="sans" fill="#1F2420" font-size="57" font-weight="850" letter-spacing="-1.4">Get organized exports.</text>
    <text x="0" y="252" class="sans" fill="#667067" font-size="22" font-weight="500">MailToBills turns forwarded invoice emails into</text>
    <text x="0" y="282" class="sans" fill="#667067" font-size="22" font-weight="500">monthly PDF collections your accountant can use.</text>
  </g>

  <g transform="translate(76 404)">
    <rect width="197" height="116" rx="18" fill="#FFFDF8" stroke="#DFD8CA" filter="url(#softShadow)"/>
    <rect x="20" y="20" width="34" height="34" rx="9" fill="#F4F0E7" stroke="#DED7CA"/>
    <path d="M29 31.5L37 37.5L45 31.5" stroke="#2F684D" stroke-width="2.4" stroke-linecap="round" stroke-linejoin="round"/>
    <rect x="28" y="29" width="18" height="15" rx="2" stroke="#2F684D" stroke-width="2.4"/>
    <text x="20" y="74" class="sans" fill="#202720" font-size="20" font-weight="800">1. Forward</text>
    <text x="20" y="99" class="sans" fill="#687269" font-size="15">Send invoice PDFs</text>
  </g>

  <g transform="translate(293 404)">
    <rect width="197" height="116" rx="18" fill="#FFFDF8" stroke="#DFD8CA" filter="url(#softShadow)"/>
    <rect x="20" y="20" width="34" height="34" rx="9" fill="#F4F0E7" stroke="#DED7CA"/>
    <path d="M29 30H45V45H29V30Z" stroke="#2F684D" stroke-width="2.4" stroke-linejoin="round"/>
    <path d="M29 34H45" stroke="#2F684D" stroke-width="2.4"/>
    <path d="M34 26V34M40 26V34" stroke="#2F684D" stroke-width="2.4" stroke-linecap="round"/>
    <text x="20" y="74" class="sans" fill="#202720" font-size="20" font-weight="800">2. File</text>
    <text x="20" y="99" class="sans" fill="#687269" font-size="15">Grouped by month</text>
  </g>

  <g transform="translate(510 404)">
    <rect width="197" height="116" rx="18" fill="#FFFDF8" stroke="#DFD8CA" filter="url(#softShadow)"/>
    <rect x="20" y="20" width="34" height="34" rx="9" fill="#F4F0E7" stroke="#DED7CA"/>
    <path d="M31 27H42L47 32V47H31V27Z" stroke="#2F684D" stroke-width="2.4" stroke-linejoin="round"/>
    <path d="M42 27V32H47" stroke="#2F684D" stroke-width="2.4" stroke-linejoin="round"/>
    <path d="M35 39H43M35 43H40" stroke="#2F684D" stroke-width="2.2" stroke-linecap="round"/>
    <text x="20" y="74" class="sans" fill="#202720" font-size="20" font-weight="800">3. Export</text>
    <text x="20" y="99" class="sans" fill="#687269" font-size="15">ZIP + CSV manifest</text>
  </g>

  <g transform="translate(735 98)" filter="url(#cardShadow)">
    <rect width="390" height="356" rx="24" fill="#FFFDF8" stroke="#DDD5C8" stroke-width="2"/>
    <rect x="18" y="18" width="354" height="54" rx="15" fill="#F5F1E8" stroke="#E1DACD"/>
    <text x="38" y="52" class="mono" fill="#697268" font-size="14" font-weight="800" letter-spacing="1.5">JUNE 2026</text>
    <rect x="288" y="31" width="72" height="28" rx="9" fill="#2F684D"/>
    <text x="306" y="49" class="mono" fill="#F7F3EA" font-size="10" font-weight="800">EXPORT</text>

    <g transform="translate(28 96)">
      <text class="mono" fill="#7E857D" font-size="12" font-weight="800" letter-spacing="1.2">COLLECTED</text>
      <text y="39" class="sans" fill="#1F2420" font-size="38" font-weight="850">12</text>
      <circle cx="62" cy="28" r="10" fill="#E4F0E3"/>
      <path d="M57 28L61 32L68 24" stroke="#2F684D" stroke-width="2.4" stroke-linecap="round" stroke-linejoin="round"/>
    </g>
    <g transform="translate(150 96)">
      <text class="mono" fill="#7E857D" font-size="12" font-weight="800" letter-spacing="1.2">ATTACHMENTS</text>
      <text y="39" class="sans" fill="#1F2420" font-size="38" font-weight="850">17</text>
      <text x="55" y="31" class="mono" fill="#2F684D" font-size="12" font-weight="900">+13%</text>
    </g>
    <g transform="translate(286 96)">
      <text class="mono" fill="#7E857D" font-size="12" font-weight="800" letter-spacing="1.2">PRIMARY PDFS</text>
      <text y="39" class="sans" fill="#1F2420" font-size="38" font-weight="850">12</text>
      <text x="55" y="31" class="mono" fill="#2F684D" font-size="12" font-weight="900">100%</text>
    </g>

    <g transform="translate(24 178)">
      <rect width="342" height="42" rx="13" fill="#FFFFFF" stroke="#E3DCCE"/>
      <circle cx="22" cy="21" r="13" fill="#F5F1E8" stroke="#DED7CA"/>
      <text x="18" y="26" class="mono" fill="#49524A" font-size="12" font-weight="900">E</text>
      <path d="M54 16H170" stroke="#BDB5A7" stroke-width="5" stroke-linecap="round"/>
      <path d="M54 27H128" stroke="#DED7CA" stroke-width="4" stroke-linecap="round"/>
      <rect x="188" y="11" width="58" height="20" rx="10" fill="#F0E4C3"/>
      <text x="202" y="25" class="mono" fill="#8B6B20" font-size="9" font-weight="900">PRIMARY</text>
      <text x="290" y="26" class="mono" fill="#81877F" font-size="11" font-weight="800">MAY 3</text>
    </g>
    <g transform="translate(24 232)">
      <rect width="342" height="42" rx="13" fill="#FFFFFF" stroke="#E3DCCE"/>
      <circle cx="22" cy="21" r="13" fill="#F5F1E8" stroke="#DED7CA"/>
      <text x="18" y="26" class="mono" fill="#49524A" font-size="12" font-weight="900">A</text>
      <path d="M54 16H184" stroke="#BDB5A7" stroke-width="5" stroke-linecap="round"/>
      <path d="M54 27H136" stroke="#DED7CA" stroke-width="4" stroke-linecap="round"/>
      <rect x="204" y="11" width="58" height="20" rx="10" fill="#F0E4C3"/>
      <text x="218" y="25" class="mono" fill="#8B6B20" font-size="9" font-weight="900">PRIMARY</text>
      <text x="290" y="26" class="mono" fill="#81877F" font-size="11" font-weight="800">MAY 12</text>
    </g>
    <g transform="translate(24 286)">
      <rect width="342" height="42" rx="13" fill="#FFFFFF" stroke="#E3DCCE"/>
      <circle cx="22" cy="21" r="13" fill="#F5F1E8" stroke="#DED7CA"/>
      <text x="18" y="26" class="mono" fill="#49524A" font-size="12" font-weight="900">B</text>
      <path d="M54 16H176" stroke="#BDB5A7" stroke-width="5" stroke-linecap="round"/>
      <path d="M54 27H148" stroke="#DED7CA" stroke-width="4" stroke-linecap="round"/>
      <rect x="196" y="11" width="58" height="20" rx="10" fill="#F0E4C3"/>
      <text x="210" y="25" class="mono" fill="#8B6B20" font-size="9" font-weight="900">PRIMARY</text>
      <text x="290" y="26" class="mono" fill="#81877F" font-size="11" font-weight="800">MAY 21</text>
    </g>
  </g>

  <g transform="translate(730 494)">
    <rect width="395" height="58" rx="18" fill="#1E6347"/>
    <text x="55" y="36" class="sans" fill="#F8F4EA" font-size="21" font-weight="850">Receive, store, list, export.</text>
  </g>
</svg>
